PathFileType	4	(X/Y/Z)	markers.trc
DataRate	CameraRate	NumFrames	NumMarkers	Units	OrigDataRate	OrigDataStartFrame	OrigNumFrames
200	200	7	29	mm	200	162	185
Frame#	Time	RxCheec			LxCheec			C7			maxkif			RxShould			LxShould			RxElbow			LxElbow			RxWrist			LxWrist			Psis			RxAsis			LxAsis			RxThigh			LxThigh			RxLatCon			LxLatCon			RxFH			LxFH			RxShank			LxShank			RxLatMal			LxLatMal			RxHeel			LxHeel			RxToe1			LxToe1			RxMeta5			LxMeta5			
		X1	Y1	Z1	X2	Y2	Z2	X3	Y3	Z3	X4	Y4	Z4	X5	Y5	Z5	X6	Y6	Z6	X7	Y7	Z7	X8	Y8	Z8	X9	Y9	Z9	X10	Y10	Z10	X11	Y11	Z11	X12	Y12	Z12	X13	Y13	Z13	X14	Y14	Z14	X15	Y15	Z15	X16	Y16	Z16	X17	Y17	Z17	X18	Y18	Z18	X19	Y19	Z19	X20	Y20	Z20	X21	Y21	Z21	X22	Y22	Z22	X23	Y23	Z23	X24	Y24	Z24	X25	Y25	Z25	X26	Y26	Z26	X27	Y27	Z27	X28	Y28	Z28	X29	Y29	Z29

162	2.42	1318.437933921814	1646.3278532028198	242.57363379001617	1356.4478158950806	1643.7629461288452	82.9305574297905	1212.7864360809326	1553.5635948181152	147.9300558567047	1137.6818418502808	1335.3161811828613	137.81574368476868	1225.5432605743408	1537.7464294433594	304.026335477829	1274.9731540679932	1535.6491804122925	0.30242823413573205	1135.892391204834	1192.4326419830322	386.6737484931946	1283.0679416656494	1198.4896659851074	-120.20639330148697	1212.9017114639282	948.643147945404	430.29138445854187	1389.258861541748	954.540491104126	-134.36035811901093	1164.4260883331299	1025.113821029663	159.75748002529144	1340.6941890716553	1011.4269256591797	285.59476137161255	1350.0556945800781	1012.9289627075195	35.481687635183334	1481.5409183502197	716.7696356773376	281.3419997692108	1305.7835102081299	660.6206893920898	75.48806071281433	1458.221197128296	523.0854749679565	297.9830205440521	1200.8777856826782	486.7934286594391	31.654834747314453	1444.935917854309	462.2313380241394	305.40159344673157	1162.1840000152588	444.4259703159332	15.374698676168919	1510.7817649841309	345.0954854488373	246.39403820037842	1176.398754119873	299.6537685394287	82.15402066707611	1461.6020917892456	81.11429959535599	270.2704966068268	1057.247281074524	78.12444120645523	69.81396675109863	1434.2881441116333	56.94092437624931	203.62764596939087	1012.0282173156738	62.80307471752167	126.41632556915283	1662.0538234710693	88.93777430057526	299.42435026168823	1272.4206447601318	24.811001494526863	69.01932507753372	1573.8422870635986	52.91195586323738	329.6145498752594	1162.0937585830688	17.726870253682137	21.072333678603172
163	2.425	1325.8904218673706	1645.0424194335938	243.2452142238617	1364.3792867660522	1642.6453590393066	83.7438553571701	1220.568299293518	1552.2831678390503	148.53587746620178	1145.378589630127	1334.1200351715088	138.363778591156	1233.4206104278564	1536.2030267715454	304.67021465301514	1282.7562093734741	1534.5878601074219	0.9682115633040667	1142.6267623901367	1191.0964250564575	386.25937700271606	1293.6735153198242	1198.0699300765991	-120.70190161466599	1216.3149118423462	946.2440013885498	429.7257363796234	1403.619647026062	955.4882645606995	-134.78535413742065	1172.3988056182861	1023.634672164917	160.27458012104034	1349.189281463623	1010.0830793380737	285.16462445259094	1357.1321964263916	1011.7629766464233	34.927137196063995	1488.4576797485352	714.6246433258057	278.9051830768585	1311.5297555923462	659.6922874450684	75.02157241106033	1465.795874595642	521.6931700706482	297.4058985710144	1204.8654556274414	486.5175485610962	31.75967186689377	1453.6590576171875	460.51883697509766	305.18782138824463	1165.7283306121826	444.44090127944946	15.694357454776764	1524.4240760803223	345.5051779747009	247.09738790988922	1178.9567470550537	299.4365692138672	82.22048729658127	1485.5724573135376	80.10252565145493	271.2324261665344	1057.6709508895874	78.93580198287964	70.30272483825684	1459.0409994125366	54.730936884880066	204.62621748447418	1012.4863386154175	63.91047686338425	126.9577145576477	1685.6052875518799	94.02602165937424	300.09084939956665	1272.5528478622437	24.68537539243698	68.8568577170372	1598.5685586929321	55.314235389232635	330.65149188041687	1162.0162725448608	17.786430194973946	21.230556070804596
164	2.43	1333.4264755249023	1643.7671184539795	243.94965171813965	1372.323751449585	1641.5119171142578	84.5758318901062	1228.3481359481812	1550.9830713272095	149.18453991413116	1153.090476989746	1332.908034324646	138.96185159683228	1241.3523197174072	1534.661054611206	305.3489923477173	1290.5045747756958	1533.5596799850464	1.680125598795712	1149.407982826233	1189.7703409194946	385.88374853134155	1304.1656017303467	1197.7102756500244	-121.13889306783676	1219.7885513305664	943.9160227775574	429.1761517524719	1417.975664138794	956.571638584137	-135.12690365314484	1180.435061454773	1022.101879119873	160.8075052499771	1357.7653169631958	1008.7614059448242	284.7655415534973	1364.1999959945679	1010.6136798858643	34.35805067420006	1495.0259923934937	712.22323179245	276.3867974281311	1317.3555135726929	658.782422542572	74.56697523593903	1473.1404781341553	520.122766494751	296.87175154685974	1208.9425325393677	486.27758026123047	31.862936913967133	1462.0662927627563	458.6586356163025	305.02381920814514	1169.3497896194458	444.5183277130127	16.014551743865013	1537.7695560455322	346.08134627342224	247.8274405002594	1181.5959215164185	299.25537109375	82.25800096988678	1509.2029571533203	79.5743390917778	272.1312940120697	1058.1061840057373	79.83376085758209	70.78096270561218	1483.328938484192	53.145043551921844	205.59073984622955	1012.932300567627	65.11455029249191	127.52090394496918	1708.6296081542969	99.26599264144897	300.7357120513916	1272.6378440856934	24.510744959115982	68.70146095752716	1622.6531267166138	58.258190751075745	331.739604473114	1161.9590520858765	17.852863296866417	21.43460512161255
165	2.435	1340.9945964813232	1642.499327659607	244.67623233795166	1380.263090133667	1640.3679847717285	85.42128652334213	1236.1236810684204	1549.6644973754883	149.87747371196747	1160.8186960220337	1331.6904306411743	139.60890471935272	1249.330759048462	1533.1233739852905	306.05247616767883	1298.2139587402344	1532.5976610183716	2.4382085539400578	1156.2339067459106	1188.4551048278809	385.54510474205017	1314.534068107605	1197.414755821228	-121.51878327131271	1223.33562374115	941.666841506958	428.6368787288666	1432.2729110717773	957.8319191932678	-135.40369272232056	1188.5101795196533	1020.5233097076416	161.3573431968689	1366.4253950119019	1007.4676275253296	284.3935191631317	1371.305227279663	1009.4950199127197	33.78378599882126	1501.2891292572021	709.5696330070496	273.904025554657	1323.2680559158325	657.8876972198486	74.12940263748169	1480.3071022033691	518.3919668197632	296.41467332839966	1213.125228881836	486.0711693763733	31.96117654442787	1470.2277183532715	456.67076110839844	304.9192428588867	1173.06387424469	444.6567893028259	16.325900331139565	1550.8081912994385	346.8177616596222	248.56001138687134	1184.314489364624	299.1119921207428	82.26588368415833	1532.3445796966553	79.549640417099	272.9491591453552	1058.5540533065796	80.82390576601028	71.23545557260513	1507.030963897705	52.168477326631546	206.47434890270233	1013.3394002914429	66.42725318670273	128.09546291828156	1731.0924530029297	104.62350398302078	301.32365226745605	1272.6795673370361	24.294190108776093	68.55945289134979	1646.014928817749	61.70617789030075	332.80348777770996	1161.9224548339844	17.924847081303596	21.680142730474472
166	2.44	1348.4997749328613	1641.226053237915	245.40665745735168	1388.1733417510986	1639.2194032669067	86.27303689718246	1243.8910007476807	1548.331379890442	150.61597526073456	1168.5634851455688	1330.4753303527832	140.30420780181885	1257.3482990264893	1531.5930843353271	306.7755699157715	1305.8817386627197	1531.7262411117554	3.242792561650276	1163.1032228469849	1187.1527433395386	385.24574041366577	1324.770450592041	1197.183609008789	-121.84405326843262	1226.9724607467651	939.5009875297546	428.1030297279358	1446.4436769485474	959.2914581298828	-135.63232123851776	1196.6023445129395	1018.9113616943359	161.92829608917236	1375.1696348190308	1006.20436668396	284.03931856155396	1378.495693206787	1008.4192752838135	33.215757459402084	1507.2927474975586	706.6726684570312	271.54794335365295	1329.2808532714844	657.0025086402893	73.7079381942749	1487.363338470459	516.5421366691589	296.07319831848145	1217.4348831176758	485.8931005001068	32.051991671323776	1478.2387018203735	454.605370759964	304.8819601535797	1176.8893003463745	444.8489546775818	16.62212610244751	1563.5359287261963	347.6996719837189	249.2791712284088	1187.11256980896	299.00527000427246	82.24742859601974	1554.8391342163086	80.03115653991699	273.6498713493347	1059.02099609375	81.90998435020447	71.65370136499405	1530.0312042236328	51.762692630290985	207.2165310382843	1013.7037038803101	67.85544753074646	128.66158783435822	1752.9453039169312	110.069140791893	301.8215000629425	1272.688865661621	24.054164066910744	68.43563169240952	1668.5796976089478	65.56572765111923	333.7434232234955	1161.9006395339966	18.00060272216797	21.95686846971512
167	2.4450000000000003	1355.8218479156494	1639.9275064468384	246.11882865428925	1396.0304260253906	1638.071894645691	87.12409436702728	1251.6461610794067	1546.991229057312	151.4008790254593	1176.3248443603516	1329.2680978775024	141.04686677455902	1265.3987407684326	1530.074119567871	307.52032995224	1313.507318496704	1530.9534072875977	4.094542935490608	1170.0159311294556	1185.866117477417	384.9920928478241	1334.8678350448608	1197.0131397247314	-122.11854755878448	1230.717658996582	937.420129776001	427.5733530521393	1460.425615310669	960.9483480453491	-135.8228325843811	1204.6998739242554	1017.2814130783081	162.52587735652924	1383.995532989502	1004.9725770950317	283.6918532848358	1385.8098983764648	1007.3947906494141	32.663144171237946	1513.0842924118042	703.5477161407471	269.37538385391235	1335.4154825210571	656.1192870140076	73.29180836677551	1494.3896532058716	514.6358609199524	295.8786189556122	1221.8955755233765	485.73485016822815	32.134223729372025	1486.2076044082642	452.53539085388184	304.91459369659424	1180.84716796875	445.0823962688446	16.900137066841125	1575.9493112564087	348.7045466899872	249.97124075889587	1189.9938583374023	298.9310622215271	82.20770210027695	1576.5334367752075	80.9871181845665	274.18431639671326	1059.515357017517	83.09369534254074	72.02380895614624	1552.222490310669	51.86435952782631	207.75307714939117	1014.0447616577148	69.40238922834396	129.19451296329498	1774.121880531311	115.575410425663	302.19683051109314	1272.6818323135376	23.816294968128204	68.33255290985107	1690.2823448181152	69.69407200813293	334.4525992870331	1161.8846654891968	18.078835681080818	22.249294444918633
168	2.45	1362.8501892089844	1638.583779335022	246.7934489250183	1403.8174152374268	1636.931300163269	87.97063678503036	1259.3867778778076	1545.655369758606	152.2323489189148	1184.1044425964355	1328.070044517517	141.83521270751953	1273.4776735305786	1528.5707712173462	308.2956075668335	1321.0936784744263	1530.266284942627	4.994352348148823	1176.9744157791138	1184.5993995666504	384.7937285900116	1344.8195457458496	1196.8963146209717	-122.34744429588318	1234.5889806747437	935.4236721992493	427.0516037940979	1474.1761684417725	962.7782702445984	-135.97731292247772	1212.805151939392	1015.6508684158325	163.15406560897827	1392.897605895996	1003.772497177124	283.34271907806396	1393.268346786499	1006.4244270324707	32.13007003068924	1518.720030784607	700.2193331718445	267.41060614585876	1341.7006731033325	655.2287936210632	72.85832613706589	1501.473069190979	512.7487778663635	295.84503173828125	1226.5304327011108	485.5853021144867	32.208386808633804	1494.2408800125122	450.5422115325928	305.01216650009155	1184.9594116210938	445.34119963645935	17.159398645162582	1588.0404710769653	349.80127215385437	250.61798095703125	1192.9666996002197	298.88248443603516	82.15110749006271	1597.2894430160522	82.34213292598724	274.50230717658997	1060.0460767745972	84.3750536441803	72.33408838510513	1573.5058784484863	52.38655209541321	208.0295979976654	1014.3986940383911	71.07007503509521	129.67100739479065	1794.539451599121	121.11102789640427	302.4144768714905	1272.6764678955078	23.607240989804268	68.24993342161179	1711.0685110092163	73.91422986984253	334.8371684551239	1161.8646383285522	18.15943233668804	22.538654506206512
